<svg version="1.0" xmlns="http://www.w3.org/2000/svg" width="933.333" height="933.333" viewBox="0 0 700 700"><path d="M343.7 51.6c-.1.1-3.4.4-7.3.7-10.7 1-22.8 4.1-38.7 10-14 5.3-98.4 37.7-120.7 46.4-6.3 2.5-29.7 11.5-52 20-44.4 17.1-47.9 18.6-56 24.8-12.8 9.8-22.4 26.2-24.6 42.1-.4 2.7-.7 72.6-.7 155.4 0 162.2-.2 156.2 5.4 169.3 6.5 15.3 17.8 27.1 32.9 34 5.4 2.5 70.5 27.7 71.6 27.7.3 0 3 1.1 6 2.5s5.9 2.5 6.4 2.5c.6 0 1.8.4 2.8 1 .9.5 18.4 7.3 38.7 15 20.4 7.7 37.9 14.5 39 15 9.8 4.4 65.1 24.7 72.5 26.5 9 2.3 22.8 4 31.5 3.9 5.4-.1 18.4-1.2 21.5-1.9 1.4-.3 4.1-.8 6-1.1 1.9-.3 7.3-1.8 12-3.4 8-2.6 51.2-19 55.5-21 1.1-.5 6.7-2.6 12.5-4.8 16.4-6.1 87.1-33.3 90.5-34.7 1.7-.8 8.4-3.4 15-5.8 6.6-2.5 13.4-5.1 15-5.8 1.7-.6 3.5-1.3 4-1.5 5.2-1.4 36.4-14.3 41.4-17.1 7.7-4.3 18.3-14.7 22.9-22.5 4.3-7.2 8-18.1 8.8-26.1.4-3.4.7-73.5.7-155.7 0-139.6-.1-150-1.8-156.5-4.9-19.3-17.1-35.2-33.4-43.5-3.2-1.6-34.1-13.7-68.7-27S474 89.8 455 82.5c-19-7.3-38.3-14.7-43-16.5-4.7-1.7-9.8-3.8-11.5-4.5-8.6-3.7-24.6-7.8-34.8-9-5.6-.7-21.5-1.3-22-.9zM364 96.4c1.4.4 4 .9 5.9 1.2 1.9.3 7.1 1.9 11.5 3.5 11.1 4.2 41.7 15.8 44.1 16.9 1.1.5 5.8 2.3 10.5 4 4.7 1.7 9.4 3.6 10.5 4 1.1.5 32.6 12.7 70 27.1 37.4 14.4 68.7 26.5 69.5 26.9 1.2.7 1 1-1 1.8-1.4.5-20.5 8.7-42.4 18.1l-39.8 17.2-38.7-14.7c-21.2-8-49.8-18.9-63.6-24.1-13.7-5.2-33.3-12.6-43.5-16.4-10.2-3.9-21-7.9-24-9.1-3-1.1-6.4-2.4-7.5-2.9-1.1-.5-15.3-5.8-31.5-11.9-36.5-13.7-35.2-13.2-34.5-13.8.3-.3 2.6-1.3 5.2-2.3 2.7-.9 16.5-6.3 30.8-11.8 32.2-12.6 40.7-14.8 55.3-14.5 5.9.1 11.8.5 13.2.8zm-123.3 68.2c24.1 9.1 53.7 20.3 65.8 24.9 38.3 14.6 129.8 49.2 133.7 50.6 2.1.7 3.5 1.6 3 2-1 1-91.9 39.9-93.2 39.9-.8 0-42.6-17.6-60.5-25.5-1.6-.7-7.9-3.4-14-6-6-2.5-12.8-5.4-15-6.4-2.2-1-8.5-3.7-14-6.1-5.5-2.3-11.8-5-14-6-2.2-1-13.2-5.7-24.5-10.4-11.3-4.8-21.9-9.3-23.5-10.1-1.7-.8-9.6-4.1-17.5-7.5-8-3.4-15.8-6.7-17.5-7.5-1.6-.7-9.9-4.3-18.3-7.9-8.5-3.6-16-7-16.9-7.5-1.2-.6.3-1.5 5.8-3.6 4.1-1.5 8.8-3.3 10.4-4 4.5-1.9 64.9-25.3 65.7-25.4.4-.1 20.4 7.4 44.5 16.5zm-132.1 61.9c10.9 4.7 21.3 9.2 22.9 9.9 1.7.8 13.8 6 27 11.6s25.4 10.8 27 11.6c1.7.7 27.3 11.7 57 24.4s55.4 23.7 57 24.4c1.7.8 8.6 3.8 15.5 6.7 6.9 2.9 12.6 5.3 12.8 5.5.2.1.4 208.4.2 270.1v11.2l-2.7-.9c-2.8-.8-10.1-3.5-13.8-5-1.1-.5-46.8-18.1-101.5-39-119-45.7-113.3-43.4-116.6-47.3-6.2-7.3-5.8 3-5.8-151-.1-77.4.1-140.7.5-140.7.3 0 9.5 3.8 20.5 8.5zm503.8 132.2c-.1 150.2.2 143.3-5 150.1-3.1 4-6.3 5.6-23.5 12.1-7.4 2.9-14.1 5.4-14.9 5.8-.8.3-3.5 1.4-6 2.3-8.4 3.1-44.5 17-46.5 17.9-1.1.5-5.6 2.3-10 3.9-4.4 1.7-11.1 4.2-15 5.7-82.7 32-118.7 45.6-119.3 45-.4-.3-.4-280.7 0-281 .2-.1 8.6-3.7 18.8-8 10.2-4.3 20.8-8.8 23.5-10 2.8-1.2 20.5-8.9 39.5-17s36.3-15.5 38.5-16.5c2.2-1 14.8-6.4 28-12s25.8-11 28-12c2.2-1 10.1-4.4 17.5-7.5 7.4-3.2 15.8-6.8 18.5-8 2.8-1.2 6.4-2.8 8-3.5 1.7-.6 6.4-2.7 10.5-4.5 4.1-1.8 8-3.4 8.5-3.4.7-.1 1 47 .9 140.6z"/></svg>